<svg xmlns="http://www.w3.org/2000/svg" aria-hidden="true" style="position:absolute;width:0;height:0;overflow:hidden">
    <defs>
        <symbol id="icon-Icon_Insta" viewBox="0 0 34 32">
            <path fill="none" stroke="#fff" stroke-width="3.368"
                d="M5.053 1.684h23.579A3.368 3.368 0 0 1 32 5.052v20.957a3.368 3.368 0 0 1-3.368 3.368H5.053a3.368 3.368 0 0 1-3.368-3.368V5.052a3.368 3.368 0 0 1 3.368-3.368z"
                style="stroke:var(--color1, #fff)" />
            <path fill="none" stroke="#fff" stroke-width="3.368"
                d="M21.895 15.531c0 2.375-2.131 4.528-5.053 4.528s-5.053-2.153-5.053-4.528c0-2.375 2.131-4.528 5.053-4.528s5.053 2.153 5.053 4.528z"
                style="stroke:var(--color1, #fff)" />
            <path fill="#fff"
                d="M28.632 6.99c0 1.288-1.131 2.331-2.526 2.331S23.58 8.277 23.58 6.99s1.131-2.331 2.526-2.331 2.526 1.044 2.526 2.331z"
                style="fill:var(--color1, #fff)" />
            <path fill="#fff"
                d="M25.263 6.99c0-.378.173-.669.344-.827a.745.745 0 0 1 .498-.21v6.737c2.996 0 5.895-2.302 5.895-5.7h-6.737zm.842-1.037c.147 0 .331.056.498.21.171.158.344.449.344.827H20.21c0 3.398 2.899 5.7 5.895 5.7V5.953zm.842 1.037c0 .378-.173.669-.344.827a.745.745 0 0 1-.498.21V1.29c-2.996 0-5.895 2.302-5.895 5.7h6.737zm-.842 1.038a.743.743 0 0 1-.498-.21 1.135 1.135 0 0 1-.344-.827H32c0-3.398-2.899-5.7-5.895-5.7v6.737z"
                style="fill:var(--color1, #fff)" />
        </symbol>
        <symbol id="icon-Icon_Play" viewBox="0 0 37 32">
            <path fill="none" stroke="#fff" stroke-linecap="round" stroke-linejoin="round" stroke-width="1.422"
                d="M4.858 16.03V5.054c0-3.149 4.14-4.991 7.144-3.179l18.193 10.976c2.566 1.548 2.566 4.81 0 6.358L12.002 30.185c-3.004 1.812-7.144-.03-7.144-3.179V16.03z"
                style="stroke:var(--color1, #fff)" />
        </symbol>
        <symbol id="icon-Icon_Youtube" viewBox="0 0 49 32">
            <path fill="#fff"
                d="M24.617 4.537c6.002-.114 12.006.152 17.969.795.205.054.392.155.542.294s.261.311.319.5c.613 3.222.902 6.489.862 9.761a48.93 48.93 0 0 1-.862 9.761c-.059.189-.168.361-.319.5s-.337.24-.542.294c-5.963.643-11.967.908-17.969.794a142.6 142.6 0 0 1-17.969-.794c-.205-.054-.392-.156-.542-.294s-.261-.311-.319-.5a48.924 48.924 0 0 1-.862-9.761 48.93 48.93 0 0 1 .862-9.761c.059-.189.169-.361.319-.5s.337-.24.542-.294a142.6 142.6 0 0 1 17.969-.795zm0-4.539s-15.385 0-19.225.953c-1.044.26-1.996.767-2.76 1.472S1.317 4.006 1.035 4.968A54.295 54.295 0 0 0 .001 15.886a54.288 54.288 0 0 0 1.034 10.918c.281.963.832 1.84 1.597 2.545s1.716 1.213 2.76 1.472c3.84.953 19.225.953 19.225.953s15.385 0 19.225-.953c1.044-.259 1.996-.767 2.76-1.472s1.315-1.583 1.597-2.545a54.295 54.295 0 0 0 1.034-10.918 54.295 54.295 0 0 0-1.034-10.918c-.281-.963-.832-1.84-1.597-2.545S44.886 1.21 43.842.951c-3.84-.953-19.225-.953-19.225-.953z"
                style="fill:var(--color1, #fff)" />
            <path fill="#fff" d="M19.695 9.077v13.619l12.308-6.81-12.308-6.81z" style="fill:var(--color1, #fff)" />
        </symbol>
        <symbol id="icon-icon1" viewBox="0 0 29 32">
            <path fill="none" stroke="#eb601d" stroke-linecap="round" stroke-linejoin="round" stroke-width="1.306"
                d="M14.217.861C6.728.861.653 5.302.653 10.773c0 6.294 9.043 16.269 12.363 19.714.138.145.319.264.527.345s.44.124.674.124c.234 0 .465-.043.674-.124s.389-.2.527-.345c3.32-3.444 12.363-13.415 12.363-19.714 0-5.47-6.076-9.912-13.564-9.912z"
                style="stroke:var(--color2, #eb601d)" />
            <path fill="none" stroke="#eb601d" stroke-linecap="round" stroke-linejoin="round" stroke-width="1.306"
                d="M14.217 14.752c2.497 0 4.521-1.555 4.521-3.473s-2.024-3.473-4.521-3.473-4.521 1.555-4.521 3.473 2.024 3.473 4.521 3.473z"
                style="stroke:var(--color2, #eb601d)" />
        </symbol>
        <symbol id="icon-icon2" viewBox="0 0 41 32">
            <path fill="none" stroke="#eb601d" stroke-linecap="round" stroke-width="1.306" d="M20.245 21.744v4.606"
                style="stroke:var(--color2, #eb601d)" />
            <path fill="none" stroke="#eb601d" stroke-linecap="round" stroke-linejoin="round" stroke-width="1.306"
                d="M27.042 30.957H13.448l.66-2.5c.088-.334.326-.635.673-.851s.782-.334 1.231-.334h8.467c.449 0 .884.118 1.231.334s.585.517.673.851l.66 2.5z"
                style="stroke:var(--color2, #eb601d)" />
            <path fill="none" stroke="#eb601d" stroke-width="1.306"
                d="m33.959 5.468 1.859.466c1.94.486 2.909.73 3.464 1.309s.554 1.349.554 2.886v.108c0 1.268 0 1.903-.406 2.422s-1.144.827-2.617 1.445l-5.793 2.42M6.531 5.468l-1.859.466c-1.94.486-2.909.73-3.464 1.309s-.554 1.35-.554 2.886v.108c0 1.268 0 1.903.406 2.422s1.144.827 2.617 1.445l5.793 2.42m9.102-9.548c.744-1.007 1.117-1.508 1.673-1.508s.929.501 1.673 1.508l.192.259c.212.286.317.428.482.522.167.094.372.13.784.199l.372.065c1.446.246 2.169.369 2.341.784.172.417-.321.851-1.307 1.717l-.255.224c-.28.246-.421.369-.484.522s-.041.317 0 .646l.039.299c.149 1.157.223 1.736-.225 1.993-.451.257-1.128.022-2.482-.447l-.349-.121c-.386-.133-.578-.199-.782-.199s-.396.066-.782.199l-.349.121c-1.354.47-2.032.703-2.482.447s-.374-.836-.225-1.993l.039-.299c.041-.329.063-.492 0-.646-.063-.152-.204-.276-.484-.522l-.255-.224c-.985-.867-1.479-1.3-1.307-1.717.172-.416.895-.538 2.341-.784l.372-.065c.411-.069.617-.103.784-.199.165-.094.27-.236.482-.522l.192-.259z"
                style="stroke:var(--color2, #eb601d)" />
            <path fill="none" stroke="#eb601d" stroke-linecap="round" stroke-width="1.306"
                d="M31.918 30.957H8.572M29.973 1.548c1.442.212 2.298.447 3.035 1.151.928.882.879 1.834.78 3.739-.35 6.851-2.335 15.49-13.541 15.49S7.054 13.291 6.7 6.438c-.097-1.905-.146-2.859.778-3.739.926-.882 2.033-1.026 4.249-1.315a65.919 65.919 0 0 1 8.517-.522c1.397 0 2.697.038 3.891.102"
                style="stroke:var(--color2, #eb601d)" />
        </symbol>
        <symbol id="icon-icon3" viewBox="0 0 77 32">
            <path fill="none" stroke="#eb601d" stroke-miterlimit="10" stroke-width="1.333"
                d="M4.693 20.608c1.268-3.472 5.429-6.018 10.365-6.018 5.944 0 10.763 3.692 10.763 8.246s-4.819 8.246-10.763 8.246c-5.431 0-9.924-3.082-10.659-7.089M65.981 30.237c5.639 0 10.211-3.503 10.211-7.823s-4.571-7.823-10.211-7.823c-5.639 0-10.211 3.503-10.211 7.823s4.571 7.823 10.211 7.823zM16.837 9.346l15.276 1.424M18.695 14.59l5.779-4.531M14.816 22.413l3.879-7.823"
                style="stroke:var(--color2, #eb601d)" />
            <path fill="none" stroke="#eb601d" stroke-miterlimit="10" stroke-width="1.333"
                d="M65.981 23.218 52.804 3.588l-4.041-2.291-5.011 1.238M50.541 17.645s2.749 0 2.021 2.353c-.518 1.678-1.982 5.119-2.781 6.956-.316.728-1.204 1.219-2.207 1.219h-16.55c-.404 0-.808-.037-1.2-.112l-11.209-2.118M26.373 14.566l4.883-1.543c.474-.144.986.124.986.515l-.696 3.902c0 .448-.658.71-1.134.452l-4.203-2.259c-.518-.279-.424-.887.164-1.065v-.002z"
                style="stroke:var(--color2, #eb601d)" />
            <path fill="none" stroke="#eb601d" stroke-miterlimit="10" stroke-width="1.333"
                d="m46.16 23.675 3.309-8.187c.214-.538-.31-1.082-1.044-1.082h-8.8c-.752 0-1.416.374-1.64.924l-2.071 5.006-2.711-.024c-.778-.008-1.476.362-1.744.923l-.984 2.057c-.308.644.312 1.327 1.208 1.33l12.731.04c.802.003 1.51-.397 1.744-.984l.002-.003zM35.913 20.335h11.501M35.113 11.224c.316.12.668.175 1.02.17l12.385-.215s4.133 0 3.119-3.945-7.47-1.945-7.47-1.945l-8.75 2.235c-.97.248-1.724.865-1.91 1.634-.166.684.078 1.487 1.608 2.066h-.002zM2.533 20.797l-.824 1.661c-.152.307.049.65.45.767l14.58 4.246c.401.117.849-.038 1.001-.345l.824-1.661c.152-.307-.049-.651-.45-.767l-14.58-4.246c-.401-.117-.849.038-1.001.345zM.667 21.213l1.454.413M57.365.725v4.057"
                style="stroke:var(--color2, #eb601d)" />
        </symbol>
        <symbol id="icon-icon4" viewBox="0 0 30 32">
            <path fill="#d3591f"
                d="M21.878 32a.5.5 0 0 1-.313-.11c-.125-.1-3.079-2.445-6.806-4.081-4.606-2.022-9.965-2.079-10.018-2.079a.495.495 0 0 1-.41-.22C2.816 23.264.949 20.328.674 19.443.605 19.213 0 17.105 0 14.986 0 6.724 6.726 0 14.993 0c10.811 0 14.08 10.412 14.983 14.889.666 3.297.199 7.047-.109 9.527-.264 2.128-.563 3.132-1.234 4.135-1.409 2.111-6.107 3.306-6.639 3.435a.53.53 0 0 1-.118.015l.001-.001zM14.993.999C7.277.999 1 7.274 1 14.987c0 2.009.604 4.074.629 4.162.249.786 2.204 3.821 3.322 5.493.04.061.107.098.179.1 1.305.045 5.883.333 10.031 2.154 3.196 1.403 5.782 3.261 6.744 3.994a.225.225 0 0 0 .194.038 21.783 21.783 0 0 0 3.051-1.081c1.343-.603 2.235-1.224 2.652-1.849.577-.864.828-1.73 1.073-3.703.3-2.418.755-6.07.121-9.208C26.523 2.83 19.161 1 14.992 1z"
                style="fill:var(--color3, #d3591f)" />
            <path fill="#d3591f"
                d="M26.304 11.869a.502.502 0 0 1-.467-.322c-2.138-5.622-5.787-8.473-10.843-8.473a.5.5 0 0 1 0-.998c5.436 0 9.51 3.152 11.778 9.117a.5.5 0 0 1-.467.677l-.001-.001zM27.089 14.333a.499.499 0 0 1-.482-.373 23.15 23.15 0 0 0-.121-.446.5.5 0 1 1 .961-.27c.044.156.085.31.126.463a.499.499 0 0 1-.483.625v.001z"
                style="fill:var(--color3, #d3591f)" />
            <path fill="#d3591f"
                d="M29.8 20.101c-12.07 0-18.284-2.439-18.542-2.543a.503.503 0 0 1-.314-.473l.087-4.666a.5.5 0 0 1 .22-.405c.089-.06 2.24-1.488 7.865-3.487 2.339-.83 5.009-1.47 6.836-1.862a.502.502 0 0 1 .209.978c-1.474.316-4.306.972-6.712 1.827-4.295 1.526-6.547 2.729-7.317 3.176a.225.225 0 0 0-.112.19l-.07 3.748a.224.224 0 0 0 .154.217c1.617.54 7.671 2.302 17.693 2.302a.5.5 0 0 1 0 .998l.001.001z"
                style="fill:var(--color3, #d3591f)" />
        </symbol>
    </defs>
</svg>